<svg width="35" height="35" viewBox="0 0 35 35" fill="none" xmlns="http://www.w3.org/2000/svg">
<g id="Iconsax/Linear/heartsearch">
<path id="Vector" d="M31.3397 17.5C31.8063 16.0125 32.0834 14.4083 32.0834 12.6729C32.0834 8.16667 28.4522 4.52084 23.9751 4.52084C21.3209 4.52084 18.973 5.80417 17.5001 7.7875C16.7508 6.77524 15.7749 5.95252 14.6505 5.38525C13.5261 4.81799 12.2845 4.52194 11.0251 4.52084C6.548 4.52084 2.91675 8.16667 2.91675 12.6729C2.91675 22.8813 12.3667 28.9042 16.5959 30.3625C16.8438 30.45 17.1647 30.4938 17.5001 30.4938" stroke="white" stroke-width="1.5" stroke-linecap="round" stroke-linejoin="round"/>
<path id="Vector_2" d="M31.4124 31.5L29.9541 30.0417M25.8708 30.625C27.1084 30.625 28.2954 30.1333 29.1706 29.2582C30.0458 28.383 30.5374 27.196 30.5374 25.9583C30.5374 24.7207 30.0458 23.5337 29.1706 22.6585C28.2954 21.7833 27.1084 21.2917 25.8708 21.2917C24.6331 21.2917 23.4461 21.7833 22.5709 22.6585C21.6958 23.5337 21.2041 24.7207 21.2041 25.9583C21.2041 27.196 21.6958 28.383 22.5709 29.2582C23.4461 30.1333 24.6331 30.625 25.8708 30.625Z" stroke="white" stroke-width="1.5" stroke-linecap="round" stroke-linejoin="round"/>
</g>
</svg>
